<svg xmlns="http://www.w3.org/2000/svg">
<defs>
<font
       id="EmbeddedFont_1"
       horiz-adv-x="2048"><font-face
         font-family="Open Sans embedded"
         units-per-em="2048"
         font-weight="normal"
         font-style="normal"
         ascent="2170"
         descent="609"
         id="font-face10" /><missing-glyph
         horiz-adv-x="2048"
         d="M 0,0 L 2047,0 2047,2047 0,2047 0,0 Z"
         id="missing-glyph12" /><glyph
         unicode="w"
         horiz-adv-x="1589"
         d="M 1071,0 L 870,643 C 857,682 834,772 799,911 L 791,911 C 764,794 741,704 721,641 L 514,0 322,0 23,1096 197,1096 C 268,821 322,611 359,467 396,323 417,226 422,176 L 430,176 C 437,214 449,263 466,324 482,384 496,432 508,467 L 709,1096 889,1096 1085,467 C 1122,352 1148,256 1161,178 L 1169,178 C 1172,202 1179,239 1191,289 1202,339 1272,608 1399,1096 L 1571,1096 1268,0 1071,0 Z"
         id="glyph14" /><glyph
         unicode="u"
         horiz-adv-x="927"
         d="M 332,1096 L 332,385 C 332,296 352,229 393,185 434,141 497,119 584,119 699,119 783,150 836,213 889,276 915,378 915,520 L 915,1096 1081,1096 1081,0 944,0 920,147 911,147 C 877,93 830,52 770,23 709,-6 640,-20 563,-20 430,-20 330,12 264,75 197,138 164,240 164,379 L 164,1096 332,1096 Z"
         id="glyph16" /><glyph
         unicode="t"
         horiz-adv-x="663"
         d="M 530,117 C 559,117 588,119 615,124 642,128 664,132 680,137 L 680,10 C 662,1 636,-6 601,-12 566,-17 534,-20 506,-20 294,-20 188,92 188,315 L 188,967 31,967 31,1047 188,1116 258,1350 354,1350 354,1096 672,1096 672,967 354,967 354,322 C 354,256 370,205 401,170 432,135 475,117 530,117 Z"
         id="glyph18" /><glyph
         unicode="s"
         horiz-adv-x="795"
         d="M 883,299 C 883,197 845,118 769,63 693,8 586,-20 449,-20 304,-20 190,3 109,49 L 109,203 C 162,176 218,155 279,140 339,125 397,117 453,117 540,117 606,131 653,159 700,186 723,228 723,285 723,328 705,364 668,395 631,425 558,461 451,502 349,540 277,573 234,602 191,630 159,662 138,698 117,734 106,777 106,827 106,916 142,987 215,1039 288,1090 387,1116 514,1116 632,1116 747,1092 860,1044 L 801,909 C 691,954 591,977 502,977 423,977 364,965 324,940 284,915 264,881 264,838 264,809 272,784 287,763 302,742 326,723 359,704 392,685 456,658 551,623 681,576 769,528 815,480 860,432 883,372 883,299 Z"
         id="glyph20" /><glyph
         unicode="r"
         horiz-adv-x="636"
         d="M 676,1116 C 725,1116 768,1112 807,1104 L 784,950 C 739,960 699,965 664,965 575,965 500,929 437,857 374,785 342,695 342,588 L 342,0 176,0 176,1096 313,1096 332,893 340,893 C 381,964 430,1019 487,1058 544,1097 607,1116 676,1116 Z"
         id="glyph22" /><glyph
         unicode="p"
         horiz-adv-x="980"
         d="M 686,-20 C 615,-20 550,-7 491,20 432,46 382,86 342,141 L 330,141 C 338,77 342,16 342,-41 L 342,-492 176,-492 176,1096 311,1096 334,946 342,946 C 385,1006 434,1049 491,1076 548,1103 613,1116 686,1116 831,1116 944,1066 1023,967 1102,868 1141,728 1141,549 1141,369 1101,229 1021,130 940,30 829,-20 686,-20 Z M 662,975 C 550,975 469,944 419,882 369,820 343,721 342,586 L 342,549 C 342,395 368,285 419,219 470,152 553,119 666,119 761,119 835,157 889,234 942,311 969,416 969,551 969,688 942,793 889,866 835,939 759,975 662,975 Z"
         id="glyph24" /><glyph
         unicode="o"
         horiz-adv-x="1033"
         d="M 1122,549 C 1122,370 1077,231 987,131 897,30 773,-20 614,-20 516,-20 429,3 353,49 277,95 218,161 177,247 136,333 115,434 115,549 115,728 160,867 249,967 338,1066 462,1116 621,1116 774,1116 896,1065 987,963 1077,861 1122,723 1122,549 Z M 287,549 C 287,409 315,302 371,229 427,156 509,119 618,119 727,119 809,156 866,229 922,302 950,408 950,549 950,688 922,794 866,867 809,939 726,975 616,975 507,975 425,939 370,868 315,797 287,690 287,549 Z"
         id="glyph26" /><glyph
         unicode="n"
         horiz-adv-x="927"
         d="M 926,0 L 926,709 C 926,798 906,865 865,909 824,953 761,975 674,975 559,975 475,944 422,882 369,820 342,718 342,575 L 342,0 176,0 176,1096 311,1096 338,946 346,946 C 380,1000 428,1042 489,1072 550,1101 619,1116 694,1116 826,1116 925,1084 992,1021 1059,957 1092,855 1092,715 L 1092,0 926,0 Z"
         id="glyph28" /><glyph
         unicode="m"
         horiz-adv-x="1588"
         d="M 1573,0 L 1573,713 C 1573,800 1554,866 1517,910 1480,953 1422,975 1343,975 1240,975 1163,945 1114,886 1065,827 1040,735 1040,612 L 1040,0 874,0 874,713 C 874,800 855,866 818,910 781,953 722,975 643,975 539,975 463,944 415,882 366,819 342,717 342,575 L 342,0 176,0 176,1096 311,1096 338,946 346,946 C 377,999 422,1041 479,1071 536,1101 599,1116 670,1116 841,1116 953,1054 1006,930 L 1014,930 C 1047,987 1094,1033 1156,1066 1218,1099 1289,1116 1368,1116 1492,1116 1585,1084 1647,1021 1708,957 1739,855 1739,715 L 1739,0 1573,0 Z"
         id="glyph30" /><glyph
         unicode="l"
         horiz-adv-x="186"
         d="M 342,0 L 176,0 176,1556 342,1556 342,0 Z"
         id="glyph32" /><glyph
         unicode="j"
         horiz-adv-x="503"
         d="M 43,-492 C -20,-492 -72,-484 -111,-467 L -111,-332 C -65,-345 -20,-352 25,-352 77,-352 115,-338 140,-310 164,-281 176,-238 176,-180 L 176,1096 342,1096 342,-168 C 342,-384 242,-492 43,-492 Z M 162,1393 C 162,1431 171,1459 190,1477 209,1494 232,1503 260,1503 287,1503 310,1494 329,1476 348,1458 358,1430 358,1393 358,1356 348,1328 329,1310 310,1291 287,1282 260,1282 232,1282 209,1291 190,1310 171,1328 162,1356 162,1393 Z"
         id="glyph34" /><glyph
         unicode="i"
         horiz-adv-x="239"
         d="M 342,0 L 176,0 176,1096 342,1096 342,0 Z M 162,1393 C 162,1431 171,1459 190,1477 209,1494 232,1503 260,1503 287,1503 310,1494 329,1476 348,1458 358,1430 358,1393 358,1356 348,1328 329,1310 310,1291 287,1282 260,1282 232,1282 209,1291 190,1310 171,1328 162,1356 162,1393 Z"
         id="glyph36" /><glyph
         unicode="g"
         horiz-adv-x="1060"
         d="M 1073,1096 L 1073,991 870,967 C 889,944 905,913 920,876 935,838 942,795 942,748 942,641 905,555 832,491 759,427 658,395 530,395 497,395 467,398 438,403 367,366 332,319 332,262 332,232 344,210 369,196 394,181 436,174 496,174 L 690,174 C 809,174 900,149 964,99 1027,49 1059,-24 1059,-119 1059,-240 1010,-333 913,-397 816,-460 674,-492 487,-492 344,-492 233,-465 156,-412 78,-359 39,-283 39,-186 39,-119 60,-62 103,-13 146,36 206,69 283,86 255,99 232,118 213,145 194,172 184,203 184,238 184,278 195,313 216,343 237,373 271,402 317,430 260,453 214,493 179,549 143,605 125,669 125,741 125,861 161,954 233,1019 305,1084 407,1116 539,1116 596,1116 648,1109 694,1096 L 1073,1096 Z M 199,-184 C 199,-243 224,-288 274,-319 324,-350 396,-365 489,-365 628,-365 732,-344 799,-303 866,-261 899,-204 899,-133 899,-74 881,-32 844,-10 807,14 738,25 637,25 L 438,25 C 363,25 304,7 262,-29 220,-65 199,-117 199,-184 Z M 289,745 C 289,668 311,610 354,571 397,532 458,512 535,512 697,512 778,591 778,748 778,913 696,995 532,995 454,995 394,974 352,932 310,890 289,828 289,745 Z"
         id="glyph38" /><glyph
         unicode="f"
         horiz-adv-x="769"
         d="M 670,967 L 391,967 391,0 225,0 225,967 29,967 29,1042 225,1102 225,1163 C 225,1432 343,1567 578,1567 636,1567 704,1555 782,1532 L 739,1399 C 675,1420 620,1430 575,1430 512,1430 466,1409 436,1368 406,1326 391,1259 391,1167 L 391,1096 670,1096 670,967 Z"
         id="glyph40" /><glyph
         unicode="e"
         horiz-adv-x="927"
         d="M 639,-20 C 477,-20 349,29 256,128 162,227 115,364 115,539 115,716 159,856 246,960 333,1064 449,1116 596,1116 733,1116 842,1071 922,981 1002,890 1042,771 1042,623 L 1042,518 287,518 C 290,389 323,292 385,225 446,158 533,125 645,125 763,125 880,150 995,199 L 995,51 C 936,26 881,8 829,-4 776,-14 713,-20 639,-20 Z M 594,977 C 506,977 436,948 384,891 331,834 300,754 291,653 L 864,653 C 864,758 841,838 794,894 747,949 681,977 594,977 Z"
         id="glyph42" /><glyph
         unicode="d"
         horiz-adv-x="980"
         d="M 922,147 L 913,147 C 836,36 722,-20 569,-20 426,-20 314,29 235,127 155,225 115,364 115,545 115,726 155,866 235,966 315,1066 426,1116 569,1116 718,1116 832,1062 911,954 L 924,954 917,1033 913,1110 913,1556 1079,1556 1079,0 944,0 922,147 Z M 590,119 C 703,119 786,150 837,212 888,273 913,373 913,510 L 913,545 C 913,700 887,811 836,878 784,944 701,977 588,977 491,977 416,939 365,864 313,788 287,681 287,543 287,403 313,297 364,226 415,155 491,119 590,119 Z"
         id="glyph44" /><glyph
         unicode="c"
         horiz-adv-x="821"
         d="M 614,-20 C 455,-20 333,29 246,127 159,224 115,362 115,541 115,724 159,866 248,966 336,1066 462,1116 625,1116 678,1116 730,1110 783,1099 836,1088 877,1074 907,1059 L 856,918 C 819,933 779,945 736,955 693,964 654,969 621,969 398,969 287,827 287,543 287,408 314,305 369,233 423,161 503,125 610,125 701,125 795,145 891,184 L 891,37 C 818,-1 725,-20 614,-20 Z"
         id="glyph46" /><glyph
         unicode="b"
         horiz-adv-x="980"
         d="M 686,1114 C 830,1114 942,1065 1022,967 1101,868 1141,729 1141,549 1141,369 1101,229 1021,130 940,30 829,-20 686,-20 615,-20 550,-7 491,20 432,46 382,86 342,141 L 330,141 295,0 176,0 176,1556 342,1556 342,1178 C 342,1093 339,1017 334,950 L 342,950 C 419,1059 534,1114 686,1114 Z M 662,975 C 549,975 467,943 417,878 367,813 342,703 342,549 342,395 368,285 419,219 470,152 553,119 666,119 768,119 844,156 894,231 944,305 969,412 969,551 969,694 944,800 894,870 844,940 767,975 662,975 Z"
         id="glyph48" /><glyph
         unicode="a"
         horiz-adv-x="901"
         d="M 850,0 L 817,156 809,156 C 754,87 700,41 646,17 591,-8 523,-20 442,-20 333,-20 248,8 187,65 125,122 94,203 94,308 94,533 271,646 625,646 L 811,646 811,716 C 811,805 793,871 756,913 719,956 659,977 578,977 487,977 383,949 268,893 L 217,1020 C 271,1049 330,1072 395,1089 459,1106 523,1114 588,1114 719,1114 816,1085 879,1027 942,969 973,876 973,748 L 973,0 850,0 Z M 475,117 C 578,117 660,145 719,201 778,256 807,334 807,435 L 807,532 641,532 C 509,532 414,514 356,477 297,440 268,382 268,304 268,243 286,197 323,165 359,133 410,117 475,117 Z"
         id="glyph50" /><glyph
         unicode="S"
         horiz-adv-x="954"
         d="M 1026,389 C 1026,260 979,160 886,88 793,16 666,-20 506,-20 333,-20 199,2 106,47 L 106,211 C 166,186 231,166 302,151 373,136 443,129 512,129 625,129 711,151 768,194 825,237 854,296 854,373 854,424 844,465 824,498 803,530 769,560 722,587 674,614 601,645 504,680 368,729 271,786 213,853 154,920 125,1007 125,1114 125,1227 167,1316 252,1383 337,1450 449,1483 588,1483 733,1483 867,1456 989,1403 L 936,1255 C 815,1306 698,1331 584,1331 494,1331 424,1312 373,1273 322,1234 297,1181 297,1112 297,1061 306,1020 325,988 344,955 375,926 420,899 464,872 532,842 623,809 776,754 882,696 940,633 997,570 1026,489 1026,389 Z"
         id="glyph52" /><glyph
         unicode="P"
         horiz-adv-x="954"
         d="M 1128,1036 C 1128,888 1078,774 977,695 876,615 731,575 543,575 L 371,575 371,0 201,0 201,1462 580,1462 C 945,1462 1128,1320 1128,1036 Z M 371,721 L 524,721 C 675,721 784,745 851,794 918,843 952,921 952,1028 952,1125 920,1197 857,1244 794,1291 695,1315 561,1315 L 371,1315 371,721 Z"
         id="glyph54" /><glyph
         unicode="O"
         horiz-adv-x="1377"
         d="M 1470,733 C 1470,499 1411,315 1293,181 1174,47 1010,-20 799,-20 584,-20 418,46 301,178 184,309 125,495 125,735 125,973 184,1158 301,1289 418,1420 585,1485 801,1485 1011,1485 1175,1418 1293,1285 1411,1152 1470,968 1470,733 Z M 305,733 C 305,535 347,385 432,283 516,180 638,129 799,129 961,129 1083,180 1166,282 1249,384 1290,534 1290,733 1290,930 1249,1079 1167,1181 1084,1282 962,1333 801,1333 639,1333 516,1282 432,1180 347,1077 305,928 305,733 Z"
         id="glyph56" /><glyph
         unicode="L"
         horiz-adv-x="848"
         d="M 201,0 L 201,1462 371,1462 371,154 1016,154 1016,0 201,0 Z"
         id="glyph58" /><glyph
         unicode="H"
         horiz-adv-x="1139"
         d="M 1311,0 L 1141,0 1141,688 371,688 371,0 201,0 201,1462 371,1462 371,840 1141,840 1141,1462 1311,1462 1311,0 Z"
         id="glyph60" /><glyph
         unicode="G"
         horiz-adv-x="1244"
         d="M 844,766 L 1341,766 1341,55 C 1264,30 1185,12 1105,-1 1025,-14 932,-20 827,-20 606,-20 433,46 310,178 187,309 125,494 125,731 125,883 156,1016 217,1131 278,1245 365,1332 480,1393 595,1453 729,1483 883,1483 1039,1483 1184,1454 1319,1397 L 1253,1247 C 1121,1303 994,1331 872,1331 694,1331 555,1278 455,1172 355,1066 305,919 305,731 305,534 353,384 450,282 546,180 687,129 874,129 975,129 1074,141 1171,164 L 1171,614 844,614 844,766 Z"
         id="glyph62" /><glyph
         unicode="B"
         horiz-adv-x="1033"
         d="M 201,1462 L 614,1462 C 808,1462 948,1433 1035,1375 1122,1317 1165,1225 1165,1100 1165,1013 1141,942 1093,886 1044,829 974,793 881,776 L 881,766 C 1103,728 1214,611 1214,416 1214,285 1170,183 1082,110 993,37 870,0 711,0 L 201,0 201,1462 Z M 371,836 L 651,836 C 771,836 857,855 910,893 963,930 989,994 989,1083 989,1165 960,1224 901,1261 842,1297 749,1315 621,1315 L 371,1315 371,836 Z M 371,692 L 371,145 676,145 C 794,145 883,168 943,214 1002,259 1032,331 1032,428 1032,519 1002,585 941,628 880,671 787,692 662,692 L 371,692 Z"
         id="glyph64" /><glyph
         unicode="A"
         horiz-adv-x="1297"
         d="M 1120,0 L 938,465 352,465 172,0 0,0 578,1468 721,1468 1296,0 1120,0 Z M 885,618 L 715,1071 C 693,1128 670,1199 647,1282 632,1218 611,1148 584,1071 L 412,618 885,618 Z"
         id="glyph66" /><glyph
         unicode="9"
         horiz-adv-x="980"
         d="M 1061,838 C 1061,266 840,-20 397,-20 320,-20 258,-13 213,0 L 213,143 C 266,126 327,117 395,117 555,117 676,167 758,266 839,365 884,516 891,721 L 879,721 C 842,666 794,624 733,595 672,566 604,551 528,551 399,551 296,590 220,667 144,744 106,852 106,991 106,1143 149,1263 234,1351 319,1439 430,1483 569,1483 668,1483 755,1458 830,1407 904,1356 961,1281 1001,1184 1041,1086 1061,971 1061,838 Z M 569,1341 C 474,1341 400,1310 348,1249 296,1188 270,1102 270,993 270,897 294,822 342,767 390,712 463,684 561,684 622,684 678,696 729,721 780,746 820,779 849,822 878,865 893,909 893,956 893,1026 879,1091 852,1150 825,1209 787,1256 738,1290 689,1324 632,1341 569,1341 Z"
         id="glyph68" /><glyph
         unicode="8"
         horiz-adv-x="1007"
         d="M 584,1483 C 717,1483 823,1452 901,1390 979,1328 1018,1242 1018,1133 1018,1061 996,995 951,936 906,877 835,823 737,774 856,717 940,658 990,596 1040,533 1065,461 1065,379 1065,258 1023,161 938,89 853,16 737,-20 590,-20 434,-20 314,14 230,83 146,151 104,248 104,373 104,540 206,671 410,764 318,816 252,872 212,933 172,993 152,1060 152,1135 152,1241 191,1326 270,1389 348,1452 453,1483 584,1483 Z M 268,369 C 268,289 296,227 352,182 407,137 485,115 586,115 685,115 763,138 818,185 873,232 901,296 901,377 901,442 875,499 823,550 771,600 680,649 551,696 452,653 380,606 335,555 290,503 268,441 268,369 Z M 582,1348 C 499,1348 433,1328 386,1288 339,1248 315,1195 315,1128 315,1067 335,1014 374,970 413,926 486,882 592,838 687,878 755,921 795,967 834,1013 854,1067 854,1128 854,1195 830,1249 782,1289 733,1328 667,1348 582,1348 Z"
         id="glyph70" /><glyph
         unicode="7"
         horiz-adv-x="1007"
         d="M 285,0 L 891,1309 94,1309 94,1462 1067,1462 1067,1329 469,0 285,0 Z"
         id="glyph72" /><glyph
         unicode="6"
         horiz-adv-x="980"
         d="M 117,625 C 117,912 173,1127 285,1270 396,1412 561,1483 780,1483 855,1483 915,1477 958,1464 L 958,1321 C 907,1338 848,1346 782,1346 625,1346 506,1297 423,1200 340,1102 295,948 287,739 L 299,739 C 372,854 488,911 647,911 778,911 882,871 958,792 1033,713 1071,605 1071,469 1071,317 1030,198 947,111 864,24 751,-20 610,-20 459,-20 339,37 250,151 161,264 117,422 117,625 Z M 608,121 C 703,121 776,151 829,211 881,270 907,356 907,469 907,566 883,642 834,697 785,752 713,780 616,780 556,780 501,768 451,743 401,718 361,684 332,641 302,598 287,553 287,506 287,437 300,373 327,314 354,255 392,208 441,173 490,138 545,121 608,121 Z"
         id="glyph74" /><glyph
         unicode="5"
         horiz-adv-x="927"
         d="M 557,893 C 711,893 832,855 921,779 1009,702 1053,598 1053,465 1053,314 1005,195 909,109 812,23 679,-20 510,-20 345,-20 220,6 133,59 L 133,219 C 180,189 238,166 307,149 376,132 445,123 512,123 629,123 721,151 786,206 851,261 883,341 883,446 883,650 758,752 508,752 445,752 360,742 254,723 L 168,778 223,1462 950,1462 950,1309 365,1309 328,870 C 405,885 481,893 557,893 Z"
         id="glyph76" /><glyph
         unicode="4"
         horiz-adv-x="1113"
         d="M 1130,336 L 913,336 913,0 754,0 754,336 43,336 43,481 737,1470 913,1470 913,487 1130,487 1130,336 Z M 754,487 L 754,973 C 754,1068 757,1176 764,1296 L 756,1296 C 724,1232 694,1179 666,1137 L 209,487 754,487 Z"
         id="glyph78" /><glyph
         unicode="3"
         horiz-adv-x="980"
         d="M 1006,1118 C 1006,1025 980,948 928,889 875,830 801,790 705,770 L 705,762 C 822,747 909,710 966,650 1023,590 1051,511 1051,414 1051,275 1003,168 906,93 809,18 672,-20 494,-20 417,-20 346,-14 282,-3 217,9 155,30 94,59 L 94,217 C 157,186 225,162 297,146 368,129 436,121 500,121 753,121 879,220 879,418 879,595 740,684 461,684 L 317,684 317,827 463,827 C 577,827 667,852 734,903 801,953 834,1023 834,1112 834,1183 810,1239 761,1280 712,1321 645,1341 561,1341 497,1341 437,1332 380,1315 323,1298 259,1266 186,1219 L 102,1331 C 162,1378 231,1416 310,1443 388,1470 470,1483 557,1483 699,1483 809,1451 888,1386 967,1321 1006,1231 1006,1118 Z"
         id="glyph80" /><glyph
         unicode="2"
         horiz-adv-x="980"
         d="M 1061,0 L 100,0 100,143 485,530 C 602,649 680,733 717,784 754,835 782,884 801,932 820,980 829,1032 829,1087 829,1165 805,1227 758,1273 711,1318 645,1341 561,1341 500,1341 443,1331 389,1311 334,1291 274,1255 207,1202 L 119,1315 C 254,1427 400,1483 559,1483 696,1483 804,1448 882,1377 960,1307 999,1212 999,1093 999,1000 973,908 921,817 869,726 772,611 629,472 L 309,158 309,158 1061,158 1061,0 Z"
         id="glyph82" /><glyph
         unicode="1"
         horiz-adv-x="530"
         d="M 715,0 L 553,0 553,1042 C 553,1129 556,1211 561,1288 547,1274 531,1259 514,1244 497,1229 417,1164 276,1049 L 188,1163 575,1462 715,1462 715,0 Z"
         id="glyph84" /><glyph
         unicode="."
         horiz-adv-x="266"
         d="M 152,106 C 152,151 162,185 183,208 203,231 232,242 270,242 309,242 339,231 361,208 382,185 393,151 393,106 393,63 382,29 360,6 338,-17 308,-29 270,-29 236,-29 208,-18 186,3 163,24 152,58 152,106 Z"
         id="glyph86" /><glyph
         unicode=","
         horiz-adv-x="318"
         d="M 350,238 L 365,215 C 348,148 323,71 290,-18 257,-106 223,-188 188,-264 L 63,-264 C 81,-195 101,-109 123,-7 144,95 159,177 168,238 L 350,238 Z"
         id="glyph88" /><glyph
         unicode=")"
         horiz-adv-x="477"
         d="M 524,561 C 524,386 498,222 447,71 395,-80 320,-212 223,-324 L 63,-324 C 156,-199 227,-59 276,94 325,247 350,403 350,563 350,726 326,884 278,1038 229,1192 157,1333 61,1462 L 223,1462 C 321,1345 396,1210 447,1056 498,901 524,736 524,561 Z"
         id="glyph90" /><glyph
         unicode="("
         horiz-adv-x="478"
         d="M 82,561 C 82,738 108,903 160,1057 211,1211 286,1346 383,1462 L 545,1462 C 449,1333 377,1192 329,1038 280,884 256,726 256,563 256,403 281,247 330,94 379,-59 450,-198 543,-324 L 383,-324 C 285,-211 210,-78 159,73 108,224 82,387 82,561 Z"
         id="glyph92" /><glyph
         unicode=" "
         horiz-adv-x="529"
         id="glyph94" /></font></defs><defs
     id="defs134"><font
       id="EmbeddedFont_2"
       horiz-adv-x="2048"><font-face
         font-family="Open Sans embedded"
         units-per-em="2048"
         font-weight="bold"
         font-style="normal"
         ascent="2170"
         descent="609"
         id="font-face99" /><missing-glyph
         horiz-adv-x="2048"
         d="M 0,0 L 2047,0 2047,2047 0,2047 0,0 Z"
         id="missing-glyph101" /><glyph
         unicode="t"
         horiz-adv-x="795"
         d="M 631,223 C 684,223 748,235 823,258 L 823,31 C 747,-3 654,-20 543,-20 421,-20 332,11 277,73 221,134 193,227 193,350 L 193,889 47,889 47,1018 215,1120 303,1356 498,1356 498,1118 811,1118 811,889 498,889 498,350 C 498,307 510,275 535,254 559,233 591,223 631,223 Z"
         id="glyph103" /><glyph
         unicode="r"
         horiz-adv-x="742"
         d="M 784,1139 C 825,1139 860,1136 887,1130 L 864,844 C 839,851 809,854 774,854 677,854 601,829 547,779 492,729 465,659 465,569 L 465,0 160,0 160,1118 391,1118 436,930 451,930 C 486,993 533,1043 592,1082 651,1120 715,1139 784,1139 Z"
         id="glyph105" /><glyph
         unicode="o"
         horiz-adv-x="1113"
         d="M 403,561 C 403,450 421,367 458,310 494,253 553,225 635,225 716,225 775,253 811,310 846,366 864,450 864,561 864,672 846,755 810,810 774,865 715,893 633,893 552,893 493,866 457,811 421,756 403,672 403,561 Z M 1176,561 C 1176,379 1128,237 1032,134 936,31 802,-20 631,-20 524,-20 429,4 347,51 265,98 202,165 158,253 114,341 92,444 92,561 92,744 140,886 235,987 330,1088 464,1139 637,1139 744,1139 839,1116 921,1069 1003,1022 1066,955 1110,868 1154,781 1176,678 1176,561 Z"
         id="glyph107" /><glyph
         unicode="m"
         horiz-adv-x="1721"
         d="M 1161,0 L 856,0 856,653 C 856,734 843,794 816,835 789,875 746,895 688,895 610,895 553,866 518,809 483,752 465,657 465,526 L 465,0 160,0 160,1118 393,1118 434,975 451,975 C 481,1026 524,1067 581,1096 638,1125 703,1139 776,1139 943,1139 1057,1084 1116,975 L 1143,975 C 1173,1027 1217,1067 1276,1096 1334,1125 1400,1139 1473,1139 1600,1139 1696,1107 1761,1042 1826,977 1858,872 1858,729 L 1858,0 1552,0 1552,653 C 1552,734 1539,794 1512,835 1485,875 1442,895 1384,895 1309,895 1254,868 1217,815 1180,762 1161,677 1161,561 L 1161,0 Z"
         id="glyph109" /><glyph
         unicode="l"
         horiz-adv-x="318"
         d="M 465,0 L 160,0 160,1556 465,1556 465,0 Z"
         id="glyph111" /><glyph
         unicode="i"
         horiz-adv-x="372"
         d="M 147,1407 C 147,1506 202,1556 313,1556 424,1556 479,1506 479,1407 479,1360 465,1323 438,1297 410,1270 368,1257 313,1257 202,1257 147,1307 147,1407 Z M 465,0 L 160,0 160,1118 465,1118 465,0 Z"
         id="glyph113" /><glyph
         unicode="h"
         horiz-adv-x="1059"
         d="M 1192,0 L 887,0 887,653 C 887,814 827,895 707,895 622,895 560,866 522,808 484,750 465,656 465,526 L 465,0 160,0 160,1556 465,1556 465,1239 C 465,1214 463,1156 458,1065 L 451,975 467,975 C 535,1084 643,1139 791,1139 922,1139 1022,1104 1090,1033 1158,962 1192,861 1192,729 L 1192,0 Z"
         id="glyph115" /><glyph
         unicode="g"
         horiz-adv-x="1165"
         d="M 1133,1118 L 1133,963 958,918 C 990,868 1006,812 1006,750 1006,631 964,537 881,470 797,403 681,370 532,370 L 477,370 432,375 C 401,351 385,325 385,296 385,253 441,231 553,231 L 743,231 C 866,231 959,205 1024,152 1088,99 1120,22 1120,-80 1120,-211 1066,-312 957,-384 848,-456 691,-492 487,-492 331,-492 212,-465 130,-411 47,-356 6,-280 6,-182 6,-115 27,-58 69,-13 111,32 173,65 254,84 223,97 195,119 172,150 149,180 137,212 137,246 137,289 149,324 174,353 199,381 234,409 281,436 222,461 176,502 142,558 107,614 90,680 90,756 90,878 130,972 209,1039 288,1106 402,1139 549,1139 580,1139 618,1136 661,1131 704,1125 731,1121 743,1118 L 1133,1118 Z M 270,-158 C 270,-200 290,-233 331,-257 371,-281 427,-293 500,-293 609,-293 695,-278 757,-248 819,-218 850,-177 850,-125 850,-83 832,-54 795,-38 758,-22 702,-14 625,-14 L 467,-14 C 411,-14 364,-27 327,-54 289,-80 270,-115 270,-158 Z M 381,752 C 381,691 395,643 423,608 450,573 492,555 549,555 606,555 648,573 675,608 702,643 715,691 715,752 715,887 660,954 549,954 437,954 381,887 381,752 Z"
         id="glyph117" /><glyph
         unicode="a"
         horiz-adv-x="1033"
         d="M 870,0 L 811,152 803,152 C 752,87 699,43 645,18 590,-7 519,-20 432,-20 325,-20 240,11 179,73 117,135 86,223 86,338 86,457 128,546 211,603 294,660 419,688 586,688 L 780,688 780,739 C 780,856 722,915 606,915 517,915 412,888 291,834 L 190,1040 C 319,1107 461,1141 618,1141 768,1141 883,1108 963,1043 1043,978 1083,878 1083,745 L 1083,0 870,0 Z M 780,514 L 662,514 C 573,514 507,499 464,469 421,440 399,394 399,334 399,247 448,203 547,203 618,203 674,223 717,263 759,303 780,357 780,423 L 780,514 Z"
         id="glyph119" /><glyph
         unicode="U"
         horiz-adv-x="1218"
         d="M 1374,1462 L 1374,516 C 1374,408 1350,313 1302,232 1253,151 1183,88 1092,45 1001,2 893,-20 768,-20 580,-20 434,28 330,125 226,221 174,353 174,520 L 174,1462 483,1462 483,567 C 483,454 506,372 551,319 596,266 671,240 776,240 877,240 951,267 997,320 1042,373 1065,456 1065,569 L 1065,1462 1374,1462 Z"
         id="glyph121" /><glyph
         unicode="S"
         horiz-adv-x="954"
         d="M 1047,406 C 1047,274 1000,170 905,94 810,18 677,-20 508,-20 352,-20 214,9 94,68 L 94,356 C 193,312 276,281 345,263 413,245 475,236 532,236 600,236 652,249 689,275 725,301 743,340 743,391 743,420 735,445 719,468 703,490 680,511 649,532 618,553 554,586 459,631 370,673 303,713 258,752 213,791 178,836 151,887 124,938 111,998 111,1067 111,1196 155,1298 243,1372 330,1446 451,1483 606,1483 682,1483 755,1474 824,1456 893,1438 965,1413 1040,1380 L 940,1139 C 862,1171 798,1193 747,1206 696,1219 645,1225 596,1225 537,1225 492,1211 461,1184 430,1157 414,1121 414,1077 414,1050 420,1026 433,1006 446,985 466,966 494,947 521,928 587,893 690,844 827,779 920,713 971,648 1022,582 1047,501 1047,406 Z"
         id="glyph123" /><glyph
         unicode="R"
         horiz-adv-x="1191"
         d="M 494,813 L 594,813 C 692,813 764,829 811,862 858,895 881,946 881,1016 881,1085 857,1135 810,1164 762,1193 688,1208 588,1208 L 494,1208 494,813 Z M 494,561 L 494,0 184,0 184,1462 610,1462 C 809,1462 956,1426 1051,1354 1146,1281 1194,1171 1194,1024 1194,938 1170,862 1123,795 1076,728 1009,675 922,637 1142,308 1285,96 1352,0 L 1008,0 659,561 494,561 Z"
         id="glyph125" /><glyph
         unicode="H"
         horiz-adv-x="1244"
         d="M 1382,0 L 1073,0 1073,631 494,631 494,0 184,0 184,1462 494,1462 494,889 1073,889 1073,1462 1382,1462 1382,0 Z"
         id="glyph127" /><glyph
         unicode="C"
         horiz-adv-x="1139"
         d="M 805,1225 C 688,1225 598,1181 534,1094 470,1006 438,884 438,727 438,401 560,238 805,238 908,238 1032,264 1178,315 L 1178,55 C 1058,5 924,-20 776,-20 563,-20 401,45 288,174 175,303 119,488 119,729 119,881 147,1014 202,1129 257,1243 337,1331 441,1392 544,1453 666,1483 805,1483 947,1483 1090,1449 1233,1380 L 1133,1128 C 1078,1154 1023,1177 968,1196 913,1215 858,1225 805,1225 Z"
         id="glyph129" /><glyph
         unicode=" "
         horiz-adv-x="529"
         id="glyph131" /></font></defs><defs
     id="defs143"><font
       id="EmbeddedFont_3"
       horiz-adv-x="2048"><font-face
         font-family="StarSymbol embedded"
         units-per-em="2048"
         font-weight="normal"
         font-style="normal"
         ascent="1879"
         descent="635"
         id="font-face136" /><missing-glyph
         horiz-adv-x="2048"
         d="M 0,0 L 2047,0 2047,2047 0,2047 0,0 Z"
         id="missing-glyph138" /><glyph
         unicode="●"
         horiz-adv-x="1191"
         d="M 813,0 C 632,0 489,54 383,161 276,268 223,411 223,592 223,773 276,916 383,1023 489,1130 632,1184 813,1184 992,1184 1136,1130 1245,1023 1353,916 1407,772 1407,592 1407,412 1353,268 1245,161 1136,54 992,0 813,0 Z"
         id="glyph140" /></font>
</defs>
</svg>
